<?xml version="1.0" encoding="utf-8"?>
<!-- Generator: Adobe Illustrator 25.2.1, SVG Export Plug-In . SVG Version: 6.00 Build 0)  -->
<svg version="1.1" id="Layer_1" xmlns:svgjs="http://svgjs.com/svgjs"
	 xmlns="http://www.w3.org/2000/svg" xmlns:xlink="http://www.w3.org/1999/xlink" x="0px" y="0px" viewBox="0 0 48 48"
	 style="enable-background:new 0 0 48 48;" xml:space="preserve">
<style type="text/css">
	.st0{fill:#83D0FF;}
</style>
<g>
	<script></script>
	<path class="st0" d="M45.2,36.3v-2.8h-4v1.4h2.6v1.4H29.2v-1.4h10.6v-1.4h-8.7V22.3L44.1,7.6c0.5-0.5,0.7-1.2,0.7-1.8
		c0-0.9-0.4-1.7-1.2-2.3c-0.5-0.3-1-0.5-1.6-0.5c-0.8,0-1.6,0.3-2.1,0.9l-3.1,3.5L38,8.3L41,4.8c0.3-0.3,0.6-0.5,1-0.5
		c0.3,0,0.6,0.1,0.8,0.3c0.4,0.3,0.6,0.7,0.6,1.1c0,0.3-0.1,0.7-0.3,0.9l-7.3,8.2l-2-1.8L37,9.4L36,8.4l-6.3,7.1h-2.9v-1.7
		c0.6-0.4,1.2-1,1.5-1.7h0.9c1.4,0,2.6-1.2,2.6-2.6V7.7C31.7,3.5,28.3,0,24,0s-7.7,3.5-7.7,7.7v1.9c0,1.4,1.2,2.6,2.6,2.6h0.9
		c0.4,0.7,0.9,1.2,1.5,1.7v1.8l-2.6,0.4l0.2,1.4l2.7-0.5c0.6,0.7,1.4,1.1,2.4,1.1c0.9,0,1.8-0.4,2.4-1.1h3.9l2.5-2.9l2,1.8l-5.2,5.8
		v11.7h-1.9v2.8h-7.6v-2.8h-1.9V22.7h-1.5l-1.3,3.5l-2.6-1l2-5.5c0.4-1,1.3-1.8,2.4-2l0.1,0l-0.2-1.4l-0.1,0
		c-1.6,0.3-2.9,1.4-3.5,2.9L8.5,33.4H2.8v2.8H0V48h8.9v-1.4H1.4v-8.9h45.2v8.9H10.3V48H48V36.3H45.2z M27.5,8.5l-1.5-2h-5.4
		c0.5-1.4,1.8-2.3,3.3-2.3c1.9,0,3.5,1.6,3.5,3.5V8.5z M30.3,9.6c0,0.6-0.5,1.2-1.2,1.2h-0.3c0.1-0.3,0.1-0.6,0.1-1c0,0,0-2.2,0-2.3
		h0.2c0.6,0,1.2,0.5,1.2,1.2V9.6z M24,1.4c3,0,5.5,2.1,6.2,4.9c-0.3-0.1-0.7-0.2-1-0.2h-0.5C28,4.2,26.1,2.8,24,2.8s-4,1.4-4.6,3.3
		h-0.5c-0.4,0-0.7,0.1-1,0.2C18.5,3.5,21,1.4,24,1.4z M18.8,10.8c-0.6,0-1.2-0.5-1.2-1.2V8.7c0-0.6,0.5-1.2,1.2-1.2h0.2
		c0,0.1,0,2.3,0,2.3c0,0.3,0,0.7,0.1,1H18.8z M20.5,9.8V8h4.9l2.1,2.7c-0.4,1.5-1.8,2.6-3.4,2.6C22.1,13.3,20.5,11.8,20.5,9.8z
		 M24,16.7c-0.5,0-1-0.2-1.4-0.7v-1.5c0.4,0.1,0.9,0.2,1.4,0.2s0.9-0.1,1.4-0.2v1.5C25,16.5,24.5,16.7,24,16.7z M16.9,26.6v6.8h-2.5
		L16.9,26.6z M12.5,26.5l2.6,1l-2.2,5.9H10L12.5,26.5z M4.2,34.8h14.6v1.4H4.2V34.8z"/>
	<path class="st0" d="M16.3,39.5v5.2h15.5v-5.2H16.3z M25.6,41v2.3h-3.3V41H25.6z M17.7,41h3.3v2.3h-3.3V41z M30.3,43.3h-3.3V41h3.3
		V43.3z"/>
	<path class="st0" d="M13.4,44.2H12v-1.4h1.4V44.2z M13.4,41.4H12V40h1.4V41.4z"/>
	<path class="st0" d="M36,44.2h-1.4v-1.4H36V44.2z M36,41.4h-1.4V40H36V41.4z"/>
	<path class="st0" d="M28.2,29.4h-1.4V28h1.4V29.4z M28.2,26.6h-1.4v-3.8h1.4V26.6z"/>
</g>
</svg>
