<?xml version="1.0"?>
<svg xmlns="http://www.w3.org/2000/svg" xmlns:xlink="http://www.w3.org/1999/xlink" xmlns:svgjs="http://svgjs.com/svgjs" version="1.1" width="48" height="48" x="0" y="0" viewBox="0 0 512 512" style="enable-background:new 0 0 512 512" xml:space="preserve"><g><script/><g xmlns="http://www.w3.org/2000/svg"><path d="m65.483 130.967c17.838 0 32.35-14.512 32.35-32.35s-14.512-32.351-32.35-32.351-32.35 14.513-32.35 32.351 14.512 32.35 32.35 32.35zm0-49.7c9.567 0 17.35 7.783 17.35 17.351 0 9.566-7.783 17.35-17.35 17.35s-17.35-7.783-17.35-17.35c0-9.568 7.783-17.351 17.35-17.351z" fill="#0600ff" data-original="#000000" style=""/><path d="m65.483 213.8c17.838 0 32.35-14.512 32.35-32.35s-14.512-32.35-32.35-32.35-32.35 14.513-32.35 32.351 14.512 32.349 32.35 32.349zm0-49.7c9.567 0 17.35 7.783 17.35 17.351 0 9.566-7.783 17.35-17.35 17.35s-17.35-7.783-17.35-17.35c0-9.568 7.783-17.351 17.35-17.351z" fill="#0600ff" data-original="#000000" style=""/><path d="m488.5 33.133h-26.2v-17.35c0-8.703-7.081-15.783-15.783-15.783h-381.034c-8.702 0-15.783 7.08-15.783 15.783v17.35h-26.2c-12.958 0-23.5 10.542-23.5 23.5v26.983c0 4.143 3.358 7.5 7.5 7.5s7.5-3.357 7.5-7.5v-26.983c0-4.687 3.813-8.5 8.5-8.5h83.967c4.687 0 8.5 3.813 8.5 8.5v75.9h-.784c-4.142 0-7.5 3.357-7.5 7.5s3.358 7.5 7.5 7.5h.784v75.9c0 4.687-3.813 8.5-8.5 8.5h-83.967c-4.687 0-8.5-3.813-8.5-8.5v-75.9h.783c4.142 0 7.5-3.357 7.5-7.5s-3.358-7.5-7.5-7.5h-.783v-18.916c0-4.143-3.358-7.5-7.5-7.5s-7.5 3.357-7.5 7.5v109.816c0 12.958 10.542 23.5 23.5 23.5h17.916v18.133h-9.066c-8.703 0-15.783 7.08-15.783 15.783v16.567c0 8.703 7.081 15.783 15.783 15.783h.783v56.996l-32.341 64.684c-.026.053-.045.107-.07.16-.068.144-.133.289-.192.438-.037.093-.07.187-.102.28-.047.134-.092.269-.131.407-.033.115-.061.23-.089.345-.028.117-.054.234-.076.353-.026.139-.046.278-.064.417-.013.1-.025.201-.034.302-.014.157-.02.314-.024.471-.002.062-.01.121-.01.181v24.85c0 8.703 7.08 15.784 15.783 15.784h.784v17.35c0 8.703 7.08 15.783 15.783 15.783h299.766c4.142 0 7.5-3.357 7.5-7.5s-3.358-7.5-7.5-7.5h-52.089c.013-.261.04-.519.04-.783v-17.35h200.366v17.35c0 .432-.352.783-.783.783h-117.534c-4.142 0-7.5 3.357-7.5 7.5s3.358 7.5 7.5 7.5h117.534c8.703 0 15.783-7.08 15.783-15.783v-17.35h.784c8.703 0 15.783-7.081 15.783-15.784v-24.85c0-.06-.008-.119-.009-.179-.004-.157-.01-.314-.024-.471-.009-.102-.022-.202-.034-.302-.018-.139-.038-.278-.064-.417-.022-.119-.048-.236-.076-.353-.027-.116-.056-.231-.089-.345-.039-.138-.084-.273-.131-.407-.033-.094-.066-.187-.103-.28-.059-.149-.124-.294-.192-.438-.025-.053-.044-.108-.07-.16l-32.341-64.683v-56.998h.783c8.703 0 15.783-7.08 15.783-15.783v-16.567c0-8.703-7.08-15.783-15.783-15.783h-9.066v-18.133h17.916c12.958 0 23.5-10.542 23.5-23.5v-166.801c0-12.958-10.542-23.5-23.5-23.5zm-423.8 0v-17.35c0-.432.352-.783.783-.783h381.033c.432 0 .783.352.783.783v17.35zm357.75 213.801v18.133h-59.55v-18.133h41.633 17.133zm69.915 183.799h-212.298v-9.066c0-13.27-10.796-24.067-24.067-24.067h-132.533c-13.271 0-24.067 10.797-24.067 24.067v9.066h-79.765l25.633-51.267h421.463zm-227.298-66.266h-18.134v-18.134h18.134zm7.5-33.134h-33.134-66.833c-4.687 0-8.5-3.814-8.5-8.5v-133.666c0-4.687 3.813-8.5 8.5-8.5h166.8c4.687 0 8.5 3.813 8.5 8.5v133.666c0 4.686-3.813 8.5-8.5 8.5zm90.333-99.399v-18.134h18.133v9.634c0 2.997.57 5.862 1.597 8.5zm19.731-183.801c-1.027 2.638-1.597 5.503-1.597 8.5v142.167h-18.134v-9.633c0-12.958-10.542-23.5-23.5-23.5h-166.8c-12.958 0-23.5 10.542-23.5 23.5v9.633h-18.133v-142.167c0-2.997-.57-5.862-1.597-8.5zm-251.664 175.301v-9.634h18.133v18.134h-19.731c1.028-2.639 1.598-5.503 1.598-8.5zm-23.5 23.5h41.633v18.133h-59.55v-18.133h.784zm-51.051 0h18.134v18.133h-18.134zm-24.849 50.483v-16.567c0-.432.352-.783.783-.783h116.75v18.133h-116.75c-.432 0-.783-.351-.783-.783zm117.533 15.783v9.633c0 12.958 10.542 23.5 23.5 23.5h59.333v18.134h-183.8v-51.267zm-134.1 149.883v-17.35h84.4v18.134h-83.617c-.431 0-.783-.351-.783-.784zm16.567 33.134v-17.35h67.833v17.35c0 .264.027.522.04.783h-67.09c-.432 0-.783-.352-.783-.783zm149.099.783v-18.133h18.134v18.133zm25.634-33.133h-33.133-8.567c-.276 0-.5-.225-.5-.5v-17.134c0-.275.224-.5.5-.5h50.267c.276 0 .5.225.5.5v17.134c0 .275-.224.5-.5.5zm7.5 33.133v-18.133h1.067c8.547 0 15.5-6.953 15.5-15.5v-17.134c0-8.547-6.953-15.5-15.5-15.5h-50.267c-8.547 0-15.5 6.953-15.5 15.5v17.134c0 8.547 6.953 15.5 15.5 15.5h1.066v18.133h-50.483c-.432 0-.783-.352-.783-.783v-74.55c0-5 4.067-9.067 9.067-9.067h132.533c4.999 0 9.067 4.067 9.067 9.067v74.55c0 .432-.352.783-.784.783zm283.2-33.917c0 .433-.352.784-.783.784h-216.15v-18.134h216.933zm-33.133-98.616h-183.8v-18.134h59.333c12.958 0 23.5-10.542 23.5-23.5v-9.633h100.967zm16.566-83.617v16.567c0 .432-.352.783-.783.783h-116.75v-18.134h116.75c.431 0 .783.352.783.784zm-24.85-15.784h-18.133v-18.133h18.133zm32.917-33.132h-25.417-33.133-8.284-17.133c-4.687 0-8.5-3.813-8.5-8.5v-75.9h.784c4.142 0 7.5-3.357 7.5-7.5s-3.358-7.5-7.5-7.5h-.784v-75.9c0-4.687 3.813-8.5 8.5-8.5h83.967c4.687 0 8.5 3.813 8.5 8.5v75.9h-.783c-4.142 0-7.5 3.357-7.5 7.5s3.358 7.5 7.5 7.5h.783v75.9c0 4.686-3.813 8.5-8.5 8.5z" fill="#0600ff" data-original="#000000" style=""/><path d="m446.517 66.267c-17.838 0-32.35 14.513-32.35 32.351s14.512 32.35 32.35 32.35 32.35-14.512 32.35-32.35-14.513-32.351-32.35-32.351zm0 49.7c-9.567 0-17.35-7.783-17.35-17.35s7.783-17.351 17.35-17.351 17.35 7.783 17.35 17.351c0 9.567-7.784 17.35-17.35 17.35z" fill="#0600ff" data-original="#000000" style=""/><path d="m446.517 149.1c-17.838 0-32.35 14.513-32.35 32.351s14.512 32.35 32.35 32.35 32.35-14.512 32.35-32.35-14.513-32.351-32.35-32.351zm0 49.7c-9.567 0-17.35-7.783-17.35-17.35s7.783-17.351 17.35-17.351 17.35 7.783 17.35 17.351c0 9.567-7.784 17.35-17.35 17.35z" fill="#0600ff" data-original="#000000" style=""/><path d="m314.267 198.8h-116.534c-8.547 0-15.5 6.953-15.5 15.5v83.4c0 8.547 6.953 15.5 15.5 15.5h116.533c8.547 0 15.5-6.953 15.5-15.5v-83.4c.001-8.547-6.953-15.5-15.499-15.5zm.5 98.9c0 .275-.224.5-.5.5h-116.534c-.276 0-.5-.225-.5-.5v-83.4c0-.275.224-.5.5-.5h116.533c.276 0 .5.225.5.5v83.4z" fill="#0600ff" data-original="#000000" style=""/><path d="m90.333 346.333h16.567c4.142 0 7.5-3.357 7.5-7.5s-3.358-7.5-7.5-7.5h-16.567c-4.142 0-7.5 3.357-7.5 7.5s3.358 7.5 7.5 7.5z" fill="#0600ff" data-original="#000000" style=""/><path d="m405.1 346.333h16.566c4.142 0 7.5-3.357 7.5-7.5s-3.358-7.5-7.5-7.5h-16.566c-4.142 0-7.5 3.357-7.5 7.5s3.358 7.5 7.5 7.5z" fill="#0600ff" data-original="#000000" style=""/><path d="m338.833 412.6h16.567c4.142 0 7.5-3.357 7.5-7.5s-3.358-7.5-7.5-7.5h-16.566c-4.142 0-7.5 3.357-7.5 7.5-.001 4.142 3.357 7.5 7.499 7.5z" fill="#0600ff" data-original="#000000" style=""/><path d="m405.1 412.6h16.566c4.142 0 7.5-3.357 7.5-7.5s-3.358-7.5-7.5-7.5h-16.566c-4.142 0-7.5 3.357-7.5 7.5 0 4.142 3.358 7.5 7.5 7.5z" fill="#0600ff" data-original="#000000" style=""/></g></g></svg>