<?xml version="1.0" encoding="utf-8"?>
<!-- Generator: Adobe Illustrator 25.2.1, SVG Export Plug-In . SVG Version: 6.00 Build 0)  -->
<svg version="1.1" id="Layer_1" xmlns:svgjs="http://svgjs.com/svgjs"
	 xmlns="http://www.w3.org/2000/svg" xmlns:xlink="http://www.w3.org/1999/xlink" x="0px" y="0px" viewBox="0 0 48 48"
	 style="enable-background:new 0 0 48 48;" xml:space="preserve">
<style type="text/css">
	.st0{fill:#F1ABFF;}
</style>
<g>
	<script></script>
	<path class="st0" d="M44.2,8.7c-0.1-0.4-0.5-0.6-0.9-0.5c-0.4,0.1-0.6,0.5-0.5,0.9c0.2,0.5,0.2,1.1,0.2,1.6c0,1-0.3,2-0.8,2.9
		c-0.5,0.9-1.2,1.6-2.1,2.1l-0.3,0.2c-0.2,0.1-0.3,0.4-0.3,0.6v0.9H38v-2.9c0.8-0.3,1.3-1,1.3-1.8v-1.5c0-1.1-0.9-2-2-2h-0.1
		c-1.1,0-2,0.9-2,2v1.5c0,0.8,0.5,1.6,1.3,1.8v2.9h-1.6v-0.9c0-0.2-0.1-0.5-0.3-0.6l-0.3-0.2c-0.9-0.5-1.6-1.2-2.1-2.1
		c-0.5-0.9-0.8-1.9-0.8-2.9c0-3.2,2.6-5.8,5.8-5.8c1.5,0,3,0.6,4.1,1.7c0.3,0.3,0.7,0.3,1,0c0.3-0.3,0.3-0.7,0-1c-1.4-1.3-3.2-2-5-2
		c-4,0-7.2,3.2-7.2,7.2c0,1.3,0.3,2.5,1,3.6c0.6,1,1.5,1.9,2.5,2.6v0.6c-0.4,0.2-0.6,0.6-0.6,1v3.2c0,0.6,0.5,1.1,1.1,1.1h1v1
		c0,0.7,0.5,1.2,1.2,1.2h2c0.7,0,1.2-0.5,1.2-1.2v-1h1c0.6,0,1.1-0.5,1.1-1.1v-3.2c0-0.4-0.3-0.8-0.6-1v-0.6c1-0.6,1.9-1.5,2.5-2.6
		c0.6-1.1,1-2.3,1-3.6C44.5,10.1,44.4,9.4,44.2,8.7z M36.7,11.2c0-0.3,0.2-0.6,0.6-0.6h0.1c0.3,0,0.6,0.2,0.6,0.6v1.5
		c0,0.3-0.2,0.6-0.6,0.6h-0.1c-0.3,0-0.6-0.2-0.6-0.6V11.2z M38.1,23.7h-1.6v-0.8h1.6V23.7z M40.2,21.5h-6v-2.6h6V21.5z"/>
	<path class="st0" d="M37.3,2.7C37.6,2.7,38,2.4,38,2V0.8c0-0.4-0.3-0.7-0.7-0.7s-0.7,0.3-0.7,0.7V2C36.6,2.4,36.9,2.7,37.3,2.7z"/>
	<path class="st0" d="M33,3c0.1,0.3,0.4,0.4,0.6,0.4c0.1,0,0.2,0,0.3-0.1c0.4-0.2,0.5-0.6,0.4-0.9l-0.5-1.1C33.6,1,33.2,0.9,32.8,1
		c-0.4,0.2-0.5,0.6-0.4,0.9L33,3z"/>
	<path class="st0" d="M29.3,4.7l0.9,0.8c0.1,0.1,0.3,0.2,0.5,0.2c0.2,0,0.4-0.1,0.5-0.2c0.3-0.3,0.2-0.7-0.1-1l-0.9-0.8
		c-0.3-0.3-0.7-0.2-1,0.1C28.9,4,29,4.4,29.3,4.7z"/>
	<path class="st0" d="M27.4,8.5l1.1,0.4c0.1,0,0.1,0,0.2,0c0.3,0,0.6-0.2,0.7-0.5C29.5,8,29.3,7.6,29,7.5l-1.1-0.4
		C27.5,7,27.1,7.3,27,7.6C26.8,8,27,8.4,27.4,8.5z"/>
	<path class="st0" d="M27.2,12.7C27.2,12.7,27.3,12.7,27.2,12.7l1.2-0.1c0.4,0,0.7-0.4,0.6-0.8c0-0.4-0.4-0.7-0.8-0.6l-1.2,0.1
		c-0.4,0-0.7,0.4-0.6,0.8C26.6,12.5,26.9,12.7,27.2,12.7z"/>
	<path class="st0" d="M28.2,15.4c-0.3,0.2-0.4,0.6-0.3,1c0.1,0.2,0.4,0.3,0.6,0.3c0.1,0,0.2,0,0.4-0.1l1-0.6c0.3-0.2,0.4-0.6,0.3-1
		c-0.2-0.3-0.6-0.4-1-0.3L28.2,15.4z"/>
	<path class="st0" d="M40.6,3.4c0.1,0,0.2,0.1,0.3,0.1c0.3,0,0.5-0.2,0.6-0.4L42,2c0.2-0.4,0-0.8-0.4-0.9c-0.4-0.2-0.8,0-0.9,0.4
		l-0.5,1.1C40.1,2.8,40.3,3.2,40.6,3.4z"/>
	<path class="st0" d="M43.9,5.7c0.2,0,0.3-0.1,0.5-0.2l0.9-0.8c0.3-0.3,0.3-0.7,0.1-1c-0.3-0.3-0.7-0.3-1-0.1l-0.9,0.8
		c-0.3,0.3-0.3,0.7-0.1,1C43.5,5.6,43.7,5.7,43.9,5.7z"/>
	<path class="st0" d="M45.1,8.4c0.1,0.3,0.4,0.5,0.7,0.5c0.1,0,0.1,0,0.2,0l1.1-0.4c0.4-0.1,0.6-0.5,0.5-0.9C47.4,7.3,47,7,46.7,7.2
		l-1.1,0.4C45.2,7.6,45,8,45.1,8.4z"/>
	<path class="st0" d="M47.4,11.3l-1.2-0.1c-0.4,0-0.7,0.2-0.8,0.6c0,0.4,0.2,0.7,0.6,0.8l1.2,0.1c0,0,0.1,0,0.1,0
		c0.4,0,0.7-0.3,0.7-0.6C48,11.7,47.8,11.4,47.4,11.3z"/>
	<path class="st0" d="M46.3,15.4l-1-0.6c-0.3-0.2-0.8-0.1-1,0.3c-0.2,0.3-0.1,0.8,0.3,1l1,0.6c0.1,0.1,0.2,0.1,0.4,0.1
		c0.2,0,0.5-0.1,0.6-0.3C46.8,16,46.7,15.6,46.3,15.4z"/>
	<path class="st0" d="M7.8,16.3H15c0.4,0,0.7-0.3,0.7-0.7c0-0.4-0.3-0.7-0.7-0.7H7.8c-0.4,0-0.7,0.3-0.7,0.7
		C7.1,16,7.4,16.3,7.8,16.3z"/>
	<path class="st0" d="M4.5,34h13.7c0.4,0,0.7-0.3,0.7-0.7c0-0.4-0.3-0.7-0.7-0.7H4.5c-0.4,0-0.7,0.3-0.7,0.7C3.8,33.7,4.2,34,4.5,34
		z"/>
	<path class="st0" d="M27.5,26.5c0-2.3-1.9-4.2-4.2-4.2c-2.3,0-4.2,1.9-4.2,4.2s1.9,4.2,4.2,4.2C25.6,30.7,27.5,28.8,27.5,26.5z
		 M23.3,23.7c1.5,0,2.7,1.2,2.8,2.6c-0.1,0-0.2,0-0.3,0c-1.5,0-2.7-1.2-2.8-2.6C23.1,23.7,23.2,23.7,23.3,23.7z M20.6,26.5
		c0-0.9,0.4-1.7,1.1-2.2c0.3,2,2,3.5,4.1,3.5c0,0,0,0,0,0c-0.5,0.9-1.4,1.5-2.4,1.5C21.8,29.3,20.6,28,20.6,26.5z"/>
	<path class="st0" d="M40.4,37.6l-3.6-1.9c-0.5-0.3-1.2-0.5-1.8-0.5H22.8V33c0.2,0,0.4,0,0.5,0c4.2,0,8.1-2.3,10.2-5.9
		c0.2-0.4,0.2-0.8,0-1.2c-2.1-3.6-6-5.9-10.2-5.9c-0.2,0-0.4,0-0.5,0v-8.7c0-0.6-0.5-1.2-1.2-1.2H8.7c-0.4,0-0.7,0.3-0.7,0.7
		c0,0.4,0.3,0.7,0.7,0.7h12.7v8.7c-0.5,0.1-1,0.2-1.5,0.4v-0.6c0-0.6-0.5-1.2-1.2-1.2H4.1c-0.6,0-1.2,0.5-1.2,1.2v9.8
		c0,0.6,0.5,1.2,1.2,1.2h12.6c1.4,1,3,1.6,4.7,1.9v2.4h-8.5c-0.5,0-1,0.3-1.3,0.7H4.5c-0.4,0-0.7,0.3-0.7,0.7c0,0.4,0.3,0.7,0.7,0.7
		h6.9v1.9H4.5c-0.4,0-0.7,0.3-0.7,0.7c0,0.4,0.3,0.7,0.7,0.7h6.9c0.1,0.7,0.7,1.3,1.5,1.3h8.5v2.7h-20V11.5h3.9
		c0.4,0,0.7-0.3,0.7-0.7c0-0.4-0.3-0.7-0.7-0.7H1.2c-0.6,0-1.2,0.5-1.2,1.2v33.6c0,0.6,0.5,1.2,1.2,1.2h20.5c0.6,0,1.2-0.5,1.2-1.2
		V42H35c0.5,0,1.3-0.2,1.8-0.5l3.6-1.9c0.4-0.2,0.6-0.6,0.6-1C41,38.2,40.8,37.8,40.4,37.6z M15.9,40.6h-3c0,0-0.1,0-0.1-0.1v-3.8
		c0,0,0-0.1,0.1-0.1h3V40.6z M4.3,29.5v-9.3h14.2v0.9c-2.2,1-4.1,2.7-5.3,4.8c-0.2,0.4-0.2,0.8,0,1.2c0.5,0.9,1.1,1.7,1.8,2.4H4.3z
		 M14.5,26.5c1.9-3.1,5.2-5.1,8.9-5.1c3.6,0,7,1.9,8.9,5.1c-1.9,3.1-5.2,5.1-8.9,5.1C19.7,31.6,16.3,29.6,14.5,26.5z M34,37.9h-2.9
		c-0.4,0-0.7,0.3-0.7,0.7c0,0.4,0.3,0.7,0.7,0.7H34v1.3H17.3v-1.3h10.5c0.4,0,0.7-0.3,0.7-0.7c0-0.4-0.3-0.7-0.7-0.7H17.3v-1.3H34
		V37.9z M36.9,39.8l-0.8,0.4c-0.2,0.1-0.5,0.2-0.7,0.2v-3.8c0.3,0.1,0.5,0.1,0.7,0.2l0.8,0.4V39.8z M38.3,39.1v-1l0.9,0.5L38.3,39.1
		z"/>
</g>
</svg>
