<?xml version="1.0" encoding="utf-8"?>
<!-- Generator: Adobe Illustrator 25.2.1, SVG Export Plug-In . SVG Version: 6.00 Build 0)  -->
<svg version="1.1" id="Layer_1" xmlns:svgjs="http://svgjs.com/svgjs"
	 xmlns="http://www.w3.org/2000/svg" xmlns:xlink="http://www.w3.org/1999/xlink" x="0px" y="0px" viewBox="0 0 48 48"
	 style="enable-background:new 0 0 48 48;" xml:space="preserve">
<style type="text/css">
	.st0{fill:#ECEAFF;}
</style>
<g>
	<script></script>
	<g>
		<path class="st0" d="M6.1,12.3c1.7,0,3-1.4,3-3s-1.4-3-3-3s-3,1.4-3,3S4.5,12.3,6.1,12.3z M6.1,7.6c0.9,0,1.6,0.7,1.6,1.6
			c0,0.9-0.7,1.6-1.6,1.6s-1.6-0.7-1.6-1.6C4.5,8.3,5.2,7.6,6.1,7.6z"/>
		<path class="st0" d="M6.1,20c1.7,0,3-1.4,3-3s-1.4-3-3-3s-3,1.4-3,3S4.5,20,6.1,20z M6.1,15.4c0.9,0,1.6,0.7,1.6,1.6
			c0,0.9-0.7,1.6-1.6,1.6S4.5,17.9,4.5,17C4.5,16.1,5.2,15.4,6.1,15.4z"/>
		<path class="st0" d="M45.8,3.1h-2.5V1.5c0-0.8-0.7-1.5-1.5-1.5H6.1C5.3,0,4.7,0.7,4.7,1.5v1.6H2.2C1,3.1,0,4.1,0,5.3v2.5
			c0,0.4,0.3,0.7,0.7,0.7s0.7-0.3,0.7-0.7V5.3c0-0.4,0.4-0.8,0.8-0.8h7.9c0.4,0,0.8,0.4,0.8,0.8v7.1h-0.1c-0.4,0-0.7,0.3-0.7,0.7
			s0.3,0.7,0.7,0.7h0.1v7.1c0,0.4-0.4,0.8-0.8,0.8H2.2c-0.4,0-0.8-0.4-0.8-0.8v-7.1h0.1c0.4,0,0.7-0.3,0.7-0.7s-0.3-0.7-0.7-0.7H1.4
			v-1.8c0-0.4-0.3-0.7-0.7-0.7S0,10.3,0,10.7v10.3c0,1.2,1,2.2,2.2,2.2h1.7v1.7H3c-0.8,0-1.5,0.7-1.5,1.5v1.6c0,0.8,0.7,1.5,1.5,1.5
			h0.1v5.3l-3,6.1c0,0,0,0,0,0c0,0,0,0,0,0c0,0,0,0,0,0c0,0,0,0,0,0c0,0,0,0,0,0c0,0,0,0,0,0c0,0,0,0,0,0c0,0,0,0,0,0c0,0,0,0,0,0
			c0,0,0,0,0,0v2.3c0,0.8,0.7,1.5,1.5,1.5h0.1v1.6C1.6,47.3,2.2,48,3,48h28.1c0.4,0,0.7-0.3,0.7-0.7c0-0.4-0.3-0.7-0.7-0.7h-4.9
			c0,0,0,0,0-0.1v-1.6H45v1.6c0,0,0,0.1-0.1,0.1h-11c-0.4,0-0.7,0.3-0.7,0.7c0,0.4,0.3,0.7,0.7,0.7h11c0.8,0,1.5-0.7,1.5-1.5v-1.6
			h0.1c0.8,0,1.5-0.7,1.5-1.5v-2.3c0,0,0,0,0,0c0,0,0,0,0,0c0,0,0,0,0,0c0,0,0,0,0,0c0,0,0,0,0,0c0,0,0,0,0,0c0,0,0,0,0,0
			c0,0,0,0,0,0c0,0,0,0,0,0c0,0,0,0,0,0l-3-6.1v-5.3H45c0.8,0,1.5-0.7,1.5-1.5v-1.6c0-0.8-0.7-1.5-1.5-1.5h-0.8v-1.7h1.7
			c1.2,0,2.2-1,2.2-2.2V5.3C48,4.1,47,3.1,45.8,3.1z M6.1,3.1V1.5c0,0,0-0.1,0.1-0.1h35.7c0,0,0.1,0,0.1,0.1v1.6H6.1z M39.6,23.2
			v1.7H34v-1.7h3.9H39.6L39.6,23.2z M46.2,40.4H26.3v-0.8c0-1.2-1-2.3-2.3-2.3H11.6c-1.2,0-2.3,1-2.3,2.3v0.8H1.8l2.4-4.8h39.5
			L46.2,40.4z M24.9,34.2h-1.7v-1.7h1.7V34.2z M25.6,31.1h-3.1h-6.3c-0.4,0-0.8-0.4-0.8-0.8V17.7c0-0.4,0.4-0.8,0.8-0.8h15.6
			c0.4,0,0.8,0.4,0.8,0.8v12.5c0,0.4-0.4,0.8-0.8,0.8H25.6z M34,21.7V20h1.7v0.9c0,0.3,0.1,0.5,0.1,0.8H34z M35.9,4.5
			c-0.1,0.2-0.1,0.5-0.1,0.8v13.3H34v-0.9c0-1.2-1-2.2-2.2-2.2H16.2c-1.2,0-2.2,1-2.2,2.2v0.9h-1.7V5.3c0-0.3-0.1-0.5-0.1-0.8H35.9z
			 M12.3,20.9V20H14v1.7h-1.8C12.2,21.5,12.3,21.2,12.3,20.9z M10.1,23.2H14v1.7H8.4v-1.7h0.1L10.1,23.2z M5.3,23.2H7v1.7H5.3
			L5.3,23.2z M3,27.9v-1.6c0,0,0-0.1,0.1-0.1H14V28L3,27.9C3,28,3,27.9,3,27.9z M14,29.4v0.9c0,1.2,1,2.2,2.2,2.2h5.6v1.7H4.5v-4.8
			H14z M1.4,43.4v-1.6h7.9v1.7L1.4,43.4C1.4,43.5,1.4,43.5,1.4,43.4z M3,46.5v-1.6h6.4v1.6c0,0,0,0,0,0.1L3,46.5
			C3,46.6,3,46.6,3,46.5z M16.9,46.6v-1.7h1.7v1.7H16.9z M19.3,43.5h-3.1h-0.8c0,0,0,0,0,0v-1.6c0,0,0,0,0,0h4.7c0,0,0,0,0,0v1.6
			c0,0,0,0,0,0H19.3z M20,46.6v-1.7h0.1c0.8,0,1.5-0.7,1.5-1.5v-1.6c0-0.8-0.7-1.5-1.5-1.5h-4.7c-0.8,0-1.5,0.7-1.5,1.5v1.6
			c0,0.8,0.7,1.5,1.5,1.5h0.1v1.7h-4.7c0,0-0.1,0-0.1-0.1v-7c0-0.5,0.4-0.9,0.9-0.9H24c0.5,0,0.9,0.4,0.9,0.9v7c0,0,0,0.1-0.1,0.1
			H20z M46.6,43.4C46.6,43.5,46.6,43.5,46.6,43.4l-20.3,0.1v-1.7h20.3V43.4z M43.5,34.2H26.3v-1.7h5.6c1.2,0,2.2-1,2.2-2.2v-0.9h9.5
			V34.2z M45,26.3v1.6c0,0,0,0.1-0.1,0.1H34v-1.7L45,26.3C45,26.3,45,26.3,45,26.3z M42.7,24.8H41v-1.7h1.7V24.8z M45.8,21.7h-2.4
			h-3.1h-0.8h-1.6c-0.4,0-0.8-0.4-0.8-0.8v-7.1h0.1c0.4,0,0.7-0.3,0.7-0.7s-0.3-0.7-0.7-0.7h-0.1V5.3c0-0.4,0.4-0.8,0.8-0.8h7.9
			c0.4,0,0.8,0.4,0.8,0.8v7.1h-0.1c-0.4,0-0.7,0.3-0.7,0.7s0.3,0.7,0.7,0.7h0.1v7.1C46.6,21.4,46.2,21.7,45.8,21.7z"/>
		<path class="st0" d="M41.9,6.2c-1.7,0-3,1.4-3,3s1.4,3,3,3s3-1.4,3-3S43.5,6.2,41.9,6.2z M41.9,10.9c-0.9,0-1.6-0.7-1.6-1.6
			c0-0.9,0.7-1.6,1.6-1.6s1.6,0.7,1.6,1.6C43.5,10.1,42.8,10.9,41.9,10.9z"/>
		<path class="st0" d="M41.9,14c-1.7,0-3,1.4-3,3s1.4,3,3,3s3-1.4,3-3S43.5,14,41.9,14z M41.9,18.6c-0.9,0-1.6-0.7-1.6-1.6
			c0-0.9,0.7-1.6,1.6-1.6s1.6,0.7,1.6,1.6C43.5,17.9,42.8,18.6,41.9,18.6z"/>
		<path class="st0" d="M29.5,18.6H18.5c-0.8,0-1.5,0.7-1.5,1.5v7.8c0,0.8,0.7,1.5,1.5,1.5h10.9c0.8,0,1.5-0.7,1.5-1.5v-7.8
			C30.9,19.3,30.3,18.6,29.5,18.6z M29.5,27.9C29.5,27.9,29.5,28,29.5,27.9l-11,0c0,0,0,0,0,0v-7.8c0,0,0,0,0,0h10.9c0,0,0,0,0,0
			L29.5,27.9L29.5,27.9z"/>
		<path class="st0" d="M8.5,32.5H10c0.4,0,0.7-0.3,0.7-0.7c0-0.4-0.3-0.7-0.7-0.7H8.5c-0.4,0-0.7,0.3-0.7,0.7
			C7.8,32.2,8.1,32.5,8.5,32.5z"/>
		<path class="st0" d="M38,32.5h1.6c0.4,0,0.7-0.3,0.7-0.7c0-0.4-0.3-0.7-0.7-0.7H38c-0.4,0-0.7,0.3-0.7,0.7
			C37.3,32.2,37.6,32.5,38,32.5z"/>
		<path class="st0" d="M31.8,38.7h1.6c0.4,0,0.7-0.3,0.7-0.7c0-0.4-0.3-0.7-0.7-0.7h-1.6c-0.4,0-0.7,0.3-0.7,0.7
			C31.1,38.4,31.4,38.7,31.8,38.7z"/>
		<path class="st0" d="M38,38.7h1.6c0.4,0,0.7-0.3,0.7-0.7c0-0.4-0.3-0.7-0.7-0.7H38c-0.4,0-0.7,0.3-0.7,0.7
			C37.3,38.4,37.6,38.7,38,38.7z"/>
	</g>
</g>
</svg>
